<svg width="252.925" height="242.557" version="1.1" viewBox="0 0 66.9196 64.1764" xmlns="http://www.w3.org/2000/svg">
<defs>
<clipPath id="c">
<path d="m0 1080h1920v-1080h-1920z"/>
</clipPath>
<clipPath id="b">
<path d="m0 1080h1920v-1080h-1920z"/>
</clipPath>
<clipPath id="a">
<path d="m984.549 604.116h398.641v-368.097h-398.641z"/>
</clipPath>
</defs>
<g transform="translate(-70.8093 -32.0037)">
<g transform="matrix(.264583 0 0 .264583 -20.8721 -494.599)">
<g transform="matrix(.843347 0 0 .843347 -1791.21 1743.3)" stroke-width="2.02399">
<g transform="matrix(.781127 0 0 -.781127 1754.26 764.869)">
<g stroke-width="2.02399">
<g stroke-width="2.02399"/>
</g>
</g>
<g transform="matrix(.781127 0 0 -.781127 1754.26 764.869)">
<g clip-path="url(#c)" stroke-width="2.02399">
<g transform="translate(1225.37 534.635)">
<path d="m0 0-1.137-21.079c-1.083-20.055-15.151-37.043-34.653-41.844l-13.469 69.798s43.598-1.415 46.227-2.021c2.628-0.607 3.032-4.854 3.032-4.854" fill="#bd4035"/>
</g>
<g transform="translate(1317.21 324.745)">
<path d="m0 0c-0.462531-11.9103-6.68203-23.2091-16.0359-30.4902-17.2692-14.055-41.3453-19.689-62.9725-14.1197-1.54305 2.85984-0.769306 7.45077-0.787295 10.977 1.21228 19.3271 13.7088 37.3353 31.3006 45.378 11.9587 5.5844 26.1 6.77924 38.6928 2.70042 3.39346-2.10911 10.2925-1.91092 9.66959-7.15062 0.207852-2.42498 0.249999-4.86387 0.132653-7.29482z" fill="#ffcf8e"/>
</g>
<g transform="translate(1315.23 314.09)">
<path d="m0 0c-1.642-5.023-4.273-9.701-7.747-13.744-0.752-0.885-1.551-1.738-2.387-2.561-2.204-2.157-4.623-4.199-7.235-6.077-11.371 13.215-5.502 31.959-5.502 31.959 7.96-2.378 15.631-5.585 22.871-9.577" fill="#f5a15d"/>
</g>
<g transform="translate(1146.08 343.593)">
<path d="m0 0c13.048-11.801 48.294-38.608 93.479-32.232l3.625-30.601s-35.748-35.537-113.145 16.496l-32.494 61.005 34.628-7.51c5.185-1.125 9.971-3.599 13.907-7.158" fill="#77b02a"/>
</g>
<g transform="translate(1216.33 309.365)">
<path d="m0 0-2.813-34.923c-0.265-3.284 2.766-5.863 5.965-5.075l21.717 5.343c2.336 0.575 3.892 2.781 3.65 5.175l-3.125 30.883c-0.265 2.618-2.579 4.542-5.202 4.326l-15.777-1.305c-2.356-0.195-4.225-2.068-4.415-4.424" fill="#c6d831"/>
</g>
<g transform="translate(1254.48 316.804)">
<path d="m0 0-6.412-17.996 20.043-10.518c6.298-3.298 13.579-2.576 19.001 1.164 4.143 2.859 3.738 9.098-0.773 11.331z" fill="#ffcf8e"/>
</g>
<g transform="translate(1281.2 319.297)">
<path d="m0 0-10.205-16.149 17.245-14.662c5.421-4.599 12.683-5.494 18.794-3.034 4.669 1.879 5.644 8.055 1.733 11.224z" fill="#ffcf8e"/>
</g>
<g transform="translate(1339.35 313.304)">
<path d="m0 0c-0.557-0.625-1.207-1.169-1.956-1.604-5.682-3.284-11.522-4.068-15.663-1.452-9.11 5.799-18.99 10.321-29.371 13.419 1.759 5.87 3.508 11.733 5.266 17.594 2.815-0.309 5.561-0.834 8.23-1.557 4.853-1.777 9.598-3.827 14.215-6.139 6.826-3.426 13.367-7.404 19.546-11.94 2.455-1.796 2.036-5.708-0.267-8.321" fill="#ffcf8e"/>
</g>
<g transform="translate(1228.49 286.088)">
<path d="m0 0c-0.117-2.435-2.186-4.313-4.62-4.196-2.435 0.117-4.314 2.185-4.196 4.62 0.117 2.434 2.185 4.313 4.62 4.196 2.434-0.117 4.313-2.185 4.196-4.62" fill="#77b02a"/>
</g>
<g transform="translate(1124.62 349.033)">
<path d="m0 0 5.677-5.929c8.928-9.327 13.913-21.74 13.913-34.651v-72.434h-56.691l-8.27 104.179z" fill="#77b02a"/>
</g>
<g transform="translate(1373.07 271.109)">
<path d="m0 0-16.985-3.073 0.201 6.494c0.044 1.423 1.076 2.62 2.476 2.874l8.518 1.541c1.4 0.253 2.787-0.507 3.327-1.824z" fill="#5b537d"/>
</g>
<g transform="translate(1350.52 267.03)">
<path d="m0 0-16.985-3.073 0.201 6.494c0.044 1.423 1.076 2.621 2.476 2.874l8.518 1.541c1.4 0.254 2.787-0.507 3.327-1.823z" fill="#5b537d"/>
</g>
<g transform="translate(1331.99 263.677)">
<path d="m0 0-16.985-3.073 0.2 6.494c0.044 1.422 1.077 2.62 2.477 2.874l8.517 1.541c1.4 0.253 2.788-0.507 3.327-1.824z" fill="#5b537d"/>
</g>
<g transform="translate(1313.45 260.322)">
<path d="m0 0-16.986-3.073 0.201 6.494c0.044 1.423 1.076 2.62 2.476 2.874l8.518 1.541c1.4 0.253 2.787-0.507 3.327-1.824z" fill="#5b537d"/>
</g>
<g transform="translate(1378.15 272.652)">
<path d="m0 0-94.157-16.735c-1.347-0.24-2.373-1.34-2.518-2.701l-1.469-13.799c-0.193-1.816 1.23-3.398 3.056-3.398h97.055c1.754 0 3.151 1.465 3.069 3.216l-1.429 30.535c-0.086 1.852-1.781 3.206-3.607 2.882" fill="#928fb8"/>
</g>
<g transform="translate(1089.18 455.556)">
<path d="m0 0-36.275-102.332c-2.6-28.065 68.933-34.689 71.533-6.625l6.61 85.207z" fill="#ffcf8e"/>
</g>
<g transform="translate(1084.28 379.32)">
<path d="m0 0c0-17.54-4.87-33.78-13.15-47.061-11.04 4.01-19.14 11.181-18.23 20.96l22.9 64.59c5.41-11.46 8.48-24.569 8.48-38.489" fill="#f5a15d"/>
</g>
<g transform="translate(1126.78 376.746)">
<path d="m0 0-1.311-16.829c-21.139 14.38-34.66 38.579-34.7 65.399 4-15.969 12.771-29.88 24.641-40.28 3.53-3.09 7.34-5.869 11.37-8.29" fill="#f5a15d"/>
</g>
<g transform="translate(1292.65 236.02)">
<path d="m0 0h-54.702c-1.628 0-2.947 1.319-2.947 2.947 0 16.055 13.014 29.07 29.069 29.07h18.1c11.735 0 21.249-9.514 21.249-21.249 0-5.948-4.822-10.768-10.769-10.768" fill="#ffcf8e"/>
</g>
<g transform="translate(1034.49 352.455)">
<path transform="matrix(1.518 0 0 -1.518 -561.246 3273.05)" d="m381.856 2155.66c-7.88404-0.3609-20.0276 8.1519-24.3142 21.0931-4.28667 12.9411-7.95872 29.3162-11.0294 55.8276l15.394 0.2889h127.58v-21.873c-35.8584 0-50.6531-14.4463-72.5859-37.25-15.0788-15.6771-27.1605-17.7257-35.0446-18.0866z" fill="#c6d831"/>
</g>
<g transform="translate(1240.47 236.02)">
<path d="m0 0h-32.842c-3.451 0-5.997 3.223-5.196 6.58l6.745 28.304c0.574 2.405 2.724 4.102 5.196 4.102h27.596c3.061 0 5.496-2.567 5.334-5.624l-1.499-28.303c-0.15-2.836-2.494-5.059-5.334-5.059" fill="#77b02a"/>
</g>
<g transform="translate(1224.02 247.42)">
<path d="m0 0c0-2.544-2.063-4.607-4.607-4.607-2.545 0-4.608 2.063-4.608 4.607 0 2.545 2.063 4.607 4.608 4.607 2.544 0 4.607-2.062 4.607-4.607" fill="#c6d831"/>
</g>
<g transform="translate(1219.02 425)">
<path d="m0 0-7.175 31.29 2.694 69.047 0.734 28.157-118.995-21.056-4.615-49.968c-4.479-9.881-7.024-21.081-7.024-32.964 0-39.796 28.363-72.056 63.352-72.056 23.569 0 40.981 8.851 50.48 36.849l14.944 2.391c3.92 0.627 6.492 4.441 5.605 8.31" fill="#ffcf8e"/>
</g>
<g transform="translate(1198.47 419.708)">
<path d="m0 0v-20.249c0-18.204-14.757-32.961-32.961-32.961h-1e-3c-39.723 0-73.306 29.415-78.54 68.792l-0.061 0.463 28.408 18.393z" fill="#ffcf8e"/>
</g>
<g transform="translate(1076.57 486.544)">
<path d="m0 0c-3.23244 29.7021-6.8402 59.3743-9.83571 89.0953-0.84562 17.7925 18.0882 32.6406 35.1661 27.5768 22.0368-7.58329 43.6735-16.3592 65.7846-23.7289 24.1983-7.04234 50.8182-4.15978 73.2849 7.09651 9.69035 3.49679 17.6908-6.85221 15.9904-15.9498 0.75938-24.5764-20.4622-46.9963-44.9783-47.8634-12.5922-0.548826-24.3813 4.57778-36.4537 7.38474-21.6883 7.228-47.3622-3.59701-57.3397-24.1547-5.23148-9.24257-4.83226-20.0277-6.61317-30.1546-1.74852-6.55603-8.86027-9.08439-15.0104-8.32493-6.29294 0.063698-14.1081-1.12542-17.9831 5.19365-2.90563 4.05842-1.78581 9.18801-2.01182 13.8293z" fill="#ed7b39"/>
</g>
<g transform="translate(1256.97 570.25)">
<path d="m0 0c0-1.69-0.09-3.36-0.26-5-12-2.6-25.26-4.04-39.219-4.04-43.93 0-81.081 14.3-93.271 33.95l36.261-13.33c25.389-9.33 53.459-8.03 77.869 3.61l1.25 0.59c7.27 3.46 15.81-1.15 16.91-9.13 0.311-2.25 0.46-4.46 0.46-6.65" fill="#ffb84a"/>
</g>
<g transform="translate(1154.72 411.909)">
<path d="m0 0c0.476-2.315 1.567-4.459 3.048-6.367 1.486-1.902 3.403-3.548 5.584-4.736 2.178-1.19 4.593-1.922 6.994-2.158 2.404-0.222 4.795 1e-3 7.005 0.824 1.154 0.43 1.742 1.714 1.311 2.87-0.226 0.607-0.689 1.058-1.247 1.286l-0.109 0.044c-1.949 0.788-3.729 1.378-5.388 2.056-1.66 0.662-3.191 1.372-4.662 2.183-1.466 0.821-2.883 1.732-4.331 2.777-1.458 1.038-2.912 2.219-4.636 3.434l-0.091 0.064c-1.01 0.711-2.405 0.47-3.116-0.54-0.368-0.522-0.479-1.156-0.362-1.737" fill="#f5a15d"/>
</g>
<g transform="translate(1184.91 459.935)">
<path d="m0 0c-3.438 0.419-5.884 3.546-5.464 6.983l1.133 9.283c0.42 3.437 3.547 5.883 6.984 5.464 3.438-0.419 5.884-3.546 5.464-6.984l-1.133-9.282c-0.42-3.438-3.546-5.884-6.984-5.464" fill="#0e0f2c"/>
</g>
<g transform="translate(1217.17 470.116)">
<path d="m0 0c0-0.25-0.02-0.51-0.05-0.77l-1.13-9.28c-0.28-2.32-1.799-4.189-3.81-5.019l-4.56 20.399c1.16 0.731 2.571 1.07 4.04 0.891 3.18-0.391 5.51-3.091 5.51-6.221" fill="#0e0f2c"/>
</g>
<g transform="translate(1200.19 470.636)">
<path d="m0 0c-1.71376-10.8185-6.34948-22.7577-16.6847-27.9449-6.8789-3.32331-14.264 2.12064-16.7808 8.50843-6.0595 13.8342-4.03904 30.6019 3.70427 43.3726 3.73541 6.13548 11.1909 12.6555 18.8207 9.41467 8.79535-4.59676 11.1342-15.6115 11.4758-24.7479 0.0637571-2.8759-0.120499-5.75656-0.535228-8.60284zm30.354 17.591c-1.2888 7.56164-5.77287 16.755-14.58 16.849-5.57627 0.869875-10.4202-5.86104-13.1977-7.21442-3.59635 8.66736-13.3534 15.5126-22.8599 12.211-12.399-4.44897-18.8515-17.6311-21.4494-29.7756-28.5327 1.99067-57.0653 3.98133-85.598 5.972-5.47433-0.749214-2.75709-8.41034 2.03484-6.99316 27.5214-1.91995 55.0428-3.83989 82.5642-5.75984-1.0288-12.4386 1.36003-27.0197 12.0268-34.879 8.11414-5.85488 19.4038-2.14551 25.2809 5.11669 10.7354 12.4253 14.0404 30.2934 10.7443 46.1283 2.3637 5.21032 9.5456 12.8933 15.0185 6.94109 5.7375-7.87824 5.37175-18.3607 4.79095-27.6736-0.942099-10.7793-4.02396-21.6193-9.33435-30.903 0.972738-1.75638 0.105343-7.43806 3.21241-4.80197 5.48446 6.02355 7.81145 14.3005 9.92587 22.02 2.48228 10.6782 3.46504 21.9252 1.42063 32.7625z" fill="#52294b"/>
</g>
<g transform="translate(1058.62 463.77)">
<path d="m0 0c0-13.762 9.237-24.917 20.631-24.917 11.393 0 20.631 11.155 20.631 24.917s-9.238 24.918-20.631 24.918c-11.394 0-20.631-11.156-20.631-24.918" fill="#ffcf8e"/>
</g>
<g transform="translate(1081.01 450.872)">
<path d="m0 0c5.29534 2.27798 8.83829 7.9812 8.6207 13.7315-0.09508 3.19172-1.16187 6.42768-3.257 8.86725-1.03524 1.04394-3.14598 0.831335-3.67059-0.642577-0.31861-1.65476-0.308197-3.3603-0.50468-5.03391-0.288821-3.40969-1.13774-6.75808-2.47071-9.90811-0.63216-1.61581-1.45449-3.16587-1.96027-4.82595-0.232106-1.70293 1.79194-2.84671 3.24255-2.18818z" fill="#f5a15d"/>
</g>
</g>
</g>
<g transform="matrix(.781127 0 0 -.781127 1754.26 764.869)" clip-path="url(#b)" style="mix-blend-mode:overlay">
<g stroke-width="2.02399">
<g stroke-width="2.02399">
<g clip-path="url(#a)" opacity=".25" stroke-width="3.5914">
<g stroke-width="2.02399">
<g stroke-width="2.02399">
<g stroke-width="2.02399"/>
</g>
</g>
</g>
</g>
</g>
</g>
</g>
</g>
</g>
</svg>