{
    "asset" : {
        "generator" : "Khronos glTF Blender I/O v1.6.16",
        "version" : "2.0"
    },
    "scene" : 0,
    "scenes" : [
        {
            "name" : "Scene",
            "nodes" : [
                1
            ]
        }
    ],
    "nodes" : [
        {
            "mesh" : 0,
            "name" : "door_green"
        },
        {
            "children" : [
                0
            ],
            "mesh" : 1,
            "name" : "door_base_green"
        }
    ],
    "meshes" : [
        {
            "name" : "Cube.015",
            "primitives" : [
                {
                    "attributes" : {
                        "POSITION" : 0,
                        "NORMAL" : 1,
                        "TEXCOORD_0" : 2
                    },
                    "indices" : 3
                },
                {
                    "attributes" : {
                        "POSITION" : 4,
                        "NORMAL" : 5,
                        "TEXCOORD_0" : 6
                    },
                    "indices" : 7
                },
                {
                    "attributes" : {
                        "POSITION" : 8,
                        "NORMAL" : 9,
                        "TEXCOORD_0" : 10
                    },
                    "indices" : 11
                }
            ]
        },
        {
            "name" : "Plane",
            "primitives" : [
                {
                    "attributes" : {
                        "POSITION" : 12,
                        "NORMAL" : 13,
                        "TEXCOORD_0" : 14
                    },
                    "indices" : 15
                }
            ]
        }
    ],
    "accessors" : [
        {
            "bufferView" : 0,
            "componentType" : 5126,
            "count" : 3012,
            "max" : [
                1,
                2.0509824752807617,
                0.11585317552089691
            ],
            "min" : [
                -1,
                -0.20000091195106506,
                -0.11585336178541183
            ],
            "type" : "VEC3"
        },
        {
            "bufferView" : 1,
            "componentType" : 5126,
            "count" : 3012,
            "type" : "VEC3"
        },
        {
            "bufferView" : 2,
            "componentType" : 5126,
            "count" : 3012,
            "type" : "VEC2"
        },
        {
            "bufferView" : 3,
            "componentType" : 5123,
            "count" : 8898,
            "type" : "SCALAR"
        },
        {
            "bufferView" : 4,
            "componentType" : 5126,
            "count" : 768,
            "max" : [
                0.6259483098983765,
                1.5638759136199951,
                0.13677750527858734
            ],
            "min" : [
                -0.6259483695030212,
                0.2968413829803467,
                -0.13677769899368286
            ],
            "type" : "VEC3"
        },
        {
            "bufferView" : 5,
            "componentType" : 5126,
            "count" : 768,
            "type" : "VEC3"
        },
        {
            "bufferView" : 6,
            "componentType" : 5126,
            "count" : 768,
            "type" : "VEC2"
        },
        {
            "bufferView" : 7,
            "componentType" : 5123,
            "count" : 2304,
            "type" : "SCALAR"
        },
        {
            "bufferView" : 8,
            "componentType" : 5126,
            "count" : 48,
            "max" : [
                0.6109484434127808,
                1.4827179908752441,
                0.12837174534797668
            ],
            "min" : [
                -0.6109485030174255,
                0.2968413829803467,
                -0.1283719390630722
            ],
            "type" : "VEC3"
        },
        {
            "bufferView" : 9,
            "componentType" : 5126,
            "count" : 48,
            "type" : "VEC3"
        },
        {
            "bufferView" : 10,
            "componentType" : 5126,
            "count" : 48,
            "type" : "VEC2"
        },
        {
            "bufferView" : 11,
            "componentType" : 5123,
            "count" : 72,
            "type" : "SCALAR"
        },
        {
            "bufferView" : 12,
            "componentType" : 5126,
            "count" : 1366,
            "max" : [
                1.1022818088531494,
                0.22159819304943085,
                0.40684252977371216
            ],
            "min" : [
                -1.0999999046325684,
                -0.021496206521987915,
                -0.40684252977371216
            ],
            "type" : "VEC3"
        },
        {
            "bufferView" : 13,
            "componentType" : 5126,
            "count" : 1366,
            "type" : "VEC3"
        },
        {
            "bufferView" : 14,
            "componentType" : 5126,
            "count" : 1366,
            "type" : "VEC2"
        },
        {
            "bufferView" : 15,
            "componentType" : 5123,
            "count" : 5064,
            "type" : "SCALAR"
        }
    ],
    "bufferViews" : [
        {
            "buffer" : 0,
            "byteLength" : 36144,
            "byteOffset" : 0
        },
        {
            "buffer" : 0,
            "byteLength" : 36144,
            "byteOffset" : 36144
        },
        {
            "buffer" : 0,
            "byteLength" : 24096,
            "byteOffset" : 72288
        },
        {
            "buffer" : 0,
            "byteLength" : 17796,
            "byteOffset" : 96384
        },
        {
            "buffer" : 0,
            "byteLength" : 9216,
            "byteOffset" : 114180
        },
        {
            "buffer" : 0,
            "byteLength" : 9216,
            "byteOffset" : 123396
        },
        {
            "buffer" : 0,
            "byteLength" : 6144,
            "byteOffset" : 132612
        },
        {
            "buffer" : 0,
            "byteLength" : 4608,
            "byteOffset" : 138756
        },
        {
            "buffer" : 0,
            "byteLength" : 576,
            "byteOffset" : 143364
        },
        {
            "buffer" : 0,
            "byteLength" : 576,
            "byteOffset" : 143940
        },
        {
            "buffer" : 0,
            "byteLength" : 384,
            "byteOffset" : 144516
        },
        {
            "buffer" : 0,
            "byteLength" : 144,
            "byteOffset" : 144900
        },
        {
            "buffer" : 0,
            "byteLength" : 16392,
            "byteOffset" : 145044
        },
        {
            "buffer" : 0,
            "byteLength" : 16392,
            "byteOffset" : 161436
        },
        {
            "buffer" : 0,
            "byteLength" : 10928,
            "byteOffset" : 177828
        },
        {
            "buffer" : 0,
            "byteLength" : 10128,
            "byteOffset" : 188756
        }
    ],
    "buffers" : [
        {
            "byteLength" : 198884,
            "uri" : "data:application/octet-stream;base64,"
        }
    ]
}
