<?xml version="1.0" encoding="UTF-8" standalone="no"?>
<!-- Created with Inkscape (http://www.inkscape.org/) -->

<svg
   width="16"
   height="16"
   viewBox="0 0 4.2333332 4.2333333"
   version="1.1"
   id="svg5"
   xml:space="preserve"
   xmlns="http://www.w3.org/2000/svg"
   xmlns:svg="http://www.w3.org/2000/svg"><defs
     id="defs2" /><g
     id="layer1"><path
       id="rect342"
       style="fill:#a5b7f3;fill-opacity:1;stroke-width:1.16702;paint-order:stroke markers fill;stop-color:#000000"
       d="M 3.9475626 0.34261474 L 3.1517455 0.44545084 L 1.1565185 2.4411946 L 0.96324868 2.2479248 C 0.8972945 2.1819706 0.79149128 2.1819706 0.7255371 2.2479248 L 0.39222411 2.5812377 C 0.32626993 2.6471919 0.32626993 2.7535119 0.39222411 2.8194661 L 0.71158446 3.1388264 L 0.33848062 3.5119303 C 0.27852223 3.5718887 0.27852223 3.6684961 0.33848062 3.7284545 L 0.56120604 3.9511799 C 0.62116444 4.0111383 0.71777189 4.0111383 0.77773029 3.9511799 L 1.1508341 3.5780761 L 1.4701945 3.8979532 C 1.5361487 3.9639074 1.6424686 3.9639074 1.7084228 3.8979532 L 2.0417358 3.5646402 C 2.10769 3.498686 2.10769 3.3923661 2.0417358 3.3264119 L 1.8489827 3.1336588 L 3.8442097 1.137915 L 3.9475626 0.34261474 z " /></g></svg>
