{
    "asset" : {
        "generator" : "Khronos glTF Blender I/O v1.6.16",
        "version" : "2.0"
    },
    "scene" : 0,
    "scenes" : [
        {
            "name" : "Scene",
            "nodes" : [
                1
            ]
        }
    ],
    "nodes" : [
        {
            "mesh" : 0,
            "name" : "pressure_plate_top"
        },
        {
            "children" : [
                0
            ],
            "mesh" : 1,
            "name" : "pressure_plate_base"
        }
    ],
    "meshes" : [
        {
            "name" : "Cube.006",
            "primitives" : [
                {
                    "attributes" : {
                        "POSITION" : 0,
                        "NORMAL" : 1,
                        "TEXCOORD_0" : 2
                    },
                    "indices" : 3
                }
            ]
        },
        {
            "name" : "Cube.005",
            "primitives" : [
                {
                    "attributes" : {
                        "POSITION" : 4,
                        "NORMAL" : 5,
                        "TEXCOORD_0" : 6
                    },
                    "indices" : 7
                },
                {
                    "attributes" : {
                        "POSITION" : 8,
                        "NORMAL" : 9,
                        "TEXCOORD_0" : 10
                    },
                    "indices" : 11
                }
            ]
        }
    ],
    "accessors" : [
        {
            "bufferView" : 0,
            "componentType" : 5126,
            "count" : 72,
            "max" : [
                0.36803850531578064,
                0.19843269884586334,
                0.36803850531578064
            ],
            "min" : [
                -0.36803850531578064,
                0,
                -0.36803850531578064
            ],
            "type" : "VEC3"
        },
        {
            "bufferView" : 1,
            "componentType" : 5126,
            "count" : 72,
            "type" : "VEC3"
        },
        {
            "bufferView" : 2,
            "componentType" : 5126,
            "count" : 72,
            "type" : "VEC2"
        },
        {
            "bufferView" : 3,
            "componentType" : 5123,
            "count" : 246,
            "type" : "SCALAR"
        },
        {
            "bufferView" : 4,
            "componentType" : 5126,
            "count" : 718,
            "max" : [
                0.6956409215927124,
                0.20098605751991272,
                0.5
            ],
            "min" : [
                -0.6956409215927124,
                -0.01693733036518097,
                -0.5
            ],
            "type" : "VEC3"
        },
        {
            "bufferView" : 5,
            "componentType" : 5126,
            "count" : 718,
            "type" : "VEC3"
        },
        {
            "bufferView" : 6,
            "componentType" : 5126,
            "count" : 718,
            "type" : "VEC2"
        },
        {
            "bufferView" : 7,
            "componentType" : 5123,
            "count" : 2730,
            "type" : "SCALAR"
        },
        {
            "bufferView" : 8,
            "componentType" : 5126,
            "count" : 88,
            "max" : [
                0.5853199362754822,
                0.14858373999595642,
                0.14858368039131165
            ],
            "min" : [
                -0.5853199362754822,
                -4.470348358154297e-08,
                -0.14858368039131165
            ],
            "type" : "VEC3"
        },
        {
            "bufferView" : 9,
            "componentType" : 5126,
            "count" : 88,
            "type" : "VEC3"
        },
        {
            "bufferView" : 10,
            "componentType" : 5126,
            "count" : 88,
            "type" : "VEC2"
        },
        {
            "bufferView" : 11,
            "componentType" : 5123,
            "count" : 432,
            "type" : "SCALAR"
        }
    ],
    "bufferViews" : [
        {
            "buffer" : 0,
            "byteLength" : 864,
            "byteOffset" : 0
        },
        {
            "buffer" : 0,
            "byteLength" : 864,
            "byteOffset" : 864
        },
        {
            "buffer" : 0,
            "byteLength" : 576,
            "byteOffset" : 1728
        },
        {
            "buffer" : 0,
            "byteLength" : 492,
            "byteOffset" : 2304
        },
        {
            "buffer" : 0,
            "byteLength" : 8616,
            "byteOffset" : 2796
        },
        {
            "buffer" : 0,
            "byteLength" : 8616,
            "byteOffset" : 11412
        },
        {
            "buffer" : 0,
            "byteLength" : 5744,
            "byteOffset" : 20028
        },
        {
            "buffer" : 0,
            "byteLength" : 5460,
            "byteOffset" : 25772
        },
        {
            "buffer" : 0,
            "byteLength" : 1056,
            "byteOffset" : 31232
        },
        {
            "buffer" : 0,
            "byteLength" : 1056,
            "byteOffset" : 32288
        },
        {
            "buffer" : 0,
            "byteLength" : 704,
            "byteOffset" : 33344
        },
        {
            "buffer" : 0,
            "byteLength" : 864,
            "byteOffset" : 34048
        }
    ],
    "buffers" : [
        {
            "byteLength" : 34912,
            "uri" : "data:application/octet-stream;base64,"
        }
    ]
}
