{
    "asset" : {
        "generator" : "Khronos glTF Blender I/O v1.6.16",
        "version" : "2.0"
    },
    "scene" : 0,
    "scenes" : [
        {
            "name" : "Scene",
            "nodes" : [
                0
            ]
        }
    ],
    "nodes" : [
        {
            "mesh" : 0,
            "name" : "asteroid"
        }
    ],
    "meshes" : [
        {
            "name" : "Cube.002",
            "primitives" : [
                {
                    "attributes" : {
                        "POSITION" : 0,
                        "NORMAL" : 1,
                        "TEXCOORD_0" : 2
                    },
                    "indices" : 3
                }
            ]
        }
    ],
    "accessors" : [
        {
            "bufferView" : 0,
            "componentType" : 5126,
            "count" : 832,
            "max" : [
                0.3998401463031769,
                0.46762359142303467,
                0.49111488461494446
            ],
            "min" : [
                -0.42527487874031067,
                -0.45142728090286255,
                -0.4621961712837219
            ],
            "type" : "VEC3"
        },
        {
            "bufferView" : 1,
            "componentType" : 5126,
            "count" : 832,
            "type" : "VEC3"
        },
        {
            "bufferView" : 2,
            "componentType" : 5126,
            "count" : 832,
            "type" : "VEC2"
        },
        {
            "bufferView" : 3,
            "componentType" : 5123,
            "count" : 2736,
            "type" : "SCALAR"
        }
    ],
    "bufferViews" : [
        {
            "buffer" : 0,
            "byteLength" : 9984,
            "byteOffset" : 0
        },
        {
            "buffer" : 0,
            "byteLength" : 9984,
            "byteOffset" : 9984
        },
        {
            "buffer" : 0,
            "byteLength" : 6656,
            "byteOffset" : 19968
        },
        {
            "buffer" : 0,
            "byteLength" : 5472,
            "byteOffset" : 26624
        }
    ],
    "buffers" : [
        {
            "byteLength" : 32096,
            "uri" : "data:application/octet-stream;base64,"
        }
    ]
}
