{
    "asset" : {
        "generator" : "Khronos glTF Blender I/O v1.6.16",
        "version" : "2.0"
    },
    "scene" : 0,
    "scenes" : [
        {
            "name" : "Scene",
            "nodes" : [
                2
            ]
        }
    ],
    "nodes" : [
        {
            "mesh" : 0,
            "name" : "blaster_knob",
            "translation" : [
                0.011172294616699219,
                -0.20516300201416016,
                0.1600264310836792
            ]
        },
        {
            "mesh" : 1,
            "name" : "blaster_lever",
            "translation" : [
                0,
                0,
                -0.6424326300621033
            ]
        },
        {
            "children" : [
                0,
                1
            ],
            "mesh" : 2,
            "name" : "blaster"
        }
    ],
    "meshes" : [
        {
            "name" : "Cylinder.043",
            "primitives" : [
                {
                    "attributes" : {
                        "POSITION" : 0,
                        "NORMAL" : 1,
                        "TEXCOORD_0" : 2
                    },
                    "indices" : 3
                }
            ]
        },
        {
            "name" : "Cylinder.029",
            "primitives" : [
                {
                    "attributes" : {
                        "POSITION" : 4,
                        "NORMAL" : 5,
                        "TEXCOORD_0" : 6
                    },
                    "indices" : 7
                }
            ]
        },
        {
            "name" : "Cylinder.010",
            "primitives" : [
                {
                    "attributes" : {
                        "POSITION" : 8,
                        "NORMAL" : 9,
                        "TEXCOORD_0" : 10
                    },
                    "indices" : 11
                },
                {
                    "attributes" : {
                        "POSITION" : 12,
                        "NORMAL" : 13,
                        "TEXCOORD_0" : 14
                    },
                    "indices" : 15
                },
                {
                    "attributes" : {
                        "POSITION" : 16,
                        "NORMAL" : 17,
                        "TEXCOORD_0" : 18
                    },
                    "indices" : 19
                }
            ]
        }
    ],
    "accessors" : [
        {
            "bufferView" : 0,
            "componentType" : 5126,
            "count" : 85,
            "max" : [
                0.31611737608909607,
                0.18764705955982208,
                0.18764616549015045
            ],
            "min" : [
                0.09128078073263168,
                -0.1876474916934967,
                -0.18764843046665192
            ],
            "type" : "VEC3"
        },
        {
            "bufferView" : 1,
            "componentType" : 5126,
            "count" : 85,
            "type" : "VEC3"
        },
        {
            "bufferView" : 2,
            "componentType" : 5126,
            "count" : 85,
            "type" : "VEC2"
        },
        {
            "bufferView" : 3,
            "componentType" : 5123,
            "count" : 330,
            "type" : "SCALAR"
        },
        {
            "bufferView" : 4,
            "componentType" : 5126,
            "count" : 64,
            "max" : [
                0.050342392176389694,
                0.21125569939613342,
                0.048036083579063416
            ],
            "min" : [
                -0.05034233257174492,
                0.06728093326091766,
                -0.051119111478328705
            ],
            "type" : "VEC3"
        },
        {
            "bufferView" : 5,
            "componentType" : 5126,
            "count" : 64,
            "type" : "VEC3"
        },
        {
            "bufferView" : 6,
            "componentType" : 5126,
            "count" : 64,
            "type" : "VEC2"
        },
        {
            "bufferView" : 7,
            "componentType" : 5123,
            "count" : 210,
            "type" : "SCALAR"
        },
        {
            "bufferView" : 8,
            "componentType" : 5126,
            "count" : 1258,
            "max" : [
                0.18662071228027344,
                0.2697233557701111,
                0.9595927596092224
            ],
            "min" : [
                -0.1866208165884018,
                -0.43460220098495483,
                -0.8852491974830627
            ],
            "type" : "VEC3"
        },
        {
            "bufferView" : 9,
            "componentType" : 5126,
            "count" : 1258,
            "type" : "VEC3"
        },
        {
            "bufferView" : 10,
            "componentType" : 5126,
            "count" : 1258,
            "type" : "VEC2"
        },
        {
            "bufferView" : 11,
            "componentType" : 5123,
            "count" : 4488,
            "type" : "SCALAR"
        },
        {
            "bufferView" : 12,
            "componentType" : 5126,
            "count" : 54,
            "max" : [
                0.11576426774263382,
                0.16371560096740723,
                0.5028217434883118
            ],
            "min" : [
                -0.1157643124461174,
                0.11576440930366516,
                -0.291522353887558
            ],
            "type" : "VEC3"
        },
        {
            "bufferView" : 13,
            "componentType" : 5126,
            "count" : 54,
            "type" : "VEC3"
        },
        {
            "bufferView" : 14,
            "componentType" : 5126,
            "count" : 54,
            "type" : "VEC2"
        },
        {
            "bufferView" : 15,
            "componentType" : 5123,
            "count" : 144,
            "type" : "SCALAR"
        },
        {
            "bufferView" : 16,
            "componentType" : 5126,
            "count" : 150,
            "max" : [
                0.1267053782939911,
                -0.018467634916305542,
                -0.23129898309707642
            ],
            "min" : [
                -0.1267053633928299,
                -0.8083052039146423,
                -0.972700834274292
            ],
            "type" : "VEC3"
        },
        {
            "bufferView" : 17,
            "componentType" : 5126,
            "count" : 150,
            "type" : "VEC3"
        },
        {
            "bufferView" : 18,
            "componentType" : 5126,
            "count" : 150,
            "type" : "VEC2"
        },
        {
            "bufferView" : 19,
            "componentType" : 5123,
            "count" : 696,
            "type" : "SCALAR"
        }
    ],
    "bufferViews" : [
        {
            "buffer" : 0,
            "byteLength" : 1020,
            "byteOffset" : 0
        },
        {
            "buffer" : 0,
            "byteLength" : 1020,
            "byteOffset" : 1020
        },
        {
            "buffer" : 0,
            "byteLength" : 680,
            "byteOffset" : 2040
        },
        {
            "buffer" : 0,
            "byteLength" : 660,
            "byteOffset" : 2720
        },
        {
            "buffer" : 0,
            "byteLength" : 768,
            "byteOffset" : 3380
        },
        {
            "buffer" : 0,
            "byteLength" : 768,
            "byteOffset" : 4148
        },
        {
            "buffer" : 0,
            "byteLength" : 512,
            "byteOffset" : 4916
        },
        {
            "buffer" : 0,
            "byteLength" : 420,
            "byteOffset" : 5428
        },
        {
            "buffer" : 0,
            "byteLength" : 15096,
            "byteOffset" : 5848
        },
        {
            "buffer" : 0,
            "byteLength" : 15096,
            "byteOffset" : 20944
        },
        {
            "buffer" : 0,
            "byteLength" : 10064,
            "byteOffset" : 36040
        },
        {
            "buffer" : 0,
            "byteLength" : 8976,
            "byteOffset" : 46104
        },
        {
            "buffer" : 0,
            "byteLength" : 648,
            "byteOffset" : 55080
        },
        {
            "buffer" : 0,
            "byteLength" : 648,
            "byteOffset" : 55728
        },
        {
            "buffer" : 0,
            "byteLength" : 432,
            "byteOffset" : 56376
        },
        {
            "buffer" : 0,
            "byteLength" : 288,
            "byteOffset" : 56808
        },
        {
            "buffer" : 0,
            "byteLength" : 1800,
            "byteOffset" : 57096
        },
        {
            "buffer" : 0,
            "byteLength" : 1800,
            "byteOffset" : 58896
        },
        {
            "buffer" : 0,
            "byteLength" : 1200,
            "byteOffset" : 60696
        },
        {
            "buffer" : 0,
            "byteLength" : 1392,
            "byteOffset" : 61896
        }
    ],
    "buffers" : [
        {
            "byteLength" : 63288,
            "uri" : "data:application/octet-stream;base64,"
        }
    ]
}
