<svg width="235.194" height="275.052" version="1.1" viewBox="0 0 62.2284 72.7743" xmlns="http://www.w3.org/2000/svg">
<defs>
<clipPath id="a">
<path d="m0 1080h1920v-1080h-1920z"/>
</clipPath>
</defs>
<g transform="translate(-241.216 -66.8396)">
<g transform="matrix(.185048 0 0 -.185048 132.585 183.37)" stroke-width="1.90641">
<g clip-path="url(#a)" stroke-width="1.90641">
<g transform="translate(860.407 545.852)">
<path d="m0 0h-22.13c-0.3 48.67-36.16 74.38-74.01 77.11-37.86-2.73-73.72-28.43-74.02-77.11h-22.13c0 55.93 44.36 83.88 88.71 83.88h14.86c44.36 0 88.72-27.95 88.72-83.88" fill="#c7d4e1"/>
</g>
<g transform="translate(764.267 622.962)">
<path d="m0 0c-37.86-2.73-73.72-28.43-74.02-77.11-0.01-0.21-0.01-0.42-0.01-0.63h-13.55c0 0.21 0 0.42 0.01 0.63 0.34 54.47 45.2 80.18 87.57 77.11" fill="#c7d4e1"/>
</g>
<g transform="translate(838.632 408.53)">
<path d="m0 0c0-14.201-11.512-25.713-25.712-25.713-14.201 0-25.713 11.512-25.713 25.713 0 14.2 11.512 25.712 25.713 25.712 14.2 0 25.712-11.512 25.712-25.712" fill="#0e0f2c"/>
</g>
<g transform="translate(727.894,386.999)">
<path d="m0 0s-36.968-30.974-39.669-49.296c-2.702-18.321 57.666 7.635 57.666 7.635z" fill="#f5a15d"/>
</g>
<g transform="translate(802.157 415.872)">
<path d="m0 0c-0.8-4.3-1.89-8.42-3.24-12.33-8.77-25.659-28.22-42.17-47.07-38.199-9.26 1.949-16.88 8.54-22.1 17.969-7.02 12.68-9.71 30.5-6.23 49.13 6.07 32.481 28.6 55.111 50.31 50.531 21.72-4.571 34.4-34.621 28.33-67.101" fill="#9c3247"/>
</g>
<g transform="translate(802.16 415.87)">
<path d="m0 0c-0.8-4.3-1.89-8.42-3.24-12.33-1.82-5.31-4.09-10.231-6.71-14.65-19.32-7.31-40.02-10.26-60.58-8.68-0.66 0.99-1.29 2.03-1.88 3.099-7.02 12.681-9.71 30.5-6.23 49.131 6.07 32.48 28.6 55.11 50.31 50.53 21.72-4.57 34.4-34.621 28.33-67.1" fill="#691749"/>
</g>
<g transform="translate(846.257 255.562)">
<path d="m0 0h-82.01l-34.5 127.75c5.22-9.43 12.84-16.021 22.1-17.97 18.85-3.97 38.3 12.54 47.07 38.199 0.78-0.529 1.56-1.069 2.34-1.619 27.98-19.55 57.82-48.131 61.24-68.11 5.48-32-16.24-78.25-16.24-78.25" fill="#ffcf8e"/>
</g>
<g transform="translate(689.087 472.393)">
<path d="m0 0c-0.146771-13.0294-3.49238-27.7062-14.5672-35.8078-7.07567-4.7211-15.9477-1.41723-21.9916 3.40454-14.4745 10.455-21.1203 31.1419-13.5058 47.6355 4.09858 9.55814 11.8068 17.662 21.4562 21.6831 5.46173-2.54328 10.986-5.82578 17.2305-4.96272 6.13099-3.29608 7.61957-11.3922 9.72088-17.4822 1.13248-4.73438 1.62275-9.60757 1.65704-14.4704z" fill="#f5a15d"/>
</g>
<g transform="translate(650.637 472.393)">
<path d="m0 0c0-8.54-3.01-16.43-7.43-22.811-4.42 6.391-7.43 14.271-7.43 22.811 0 8.53 3.01 16.42 7.43 22.81 4.42-6.39 7.43-14.28 7.43-22.81" fill="#faffff"/>
</g>
<g transform="translate(866.656 523.763)">
<path d="m0 0h-43.999v43.48h-143.2l-4.91-36.14-9.45-83.6c-3.26-28.83 17.28-54.921 46.07-58.53l10.81-1.36c23.88-2.991 48.14 0.179 70.45 9.23l30.23 16.06v18.123h43.999z" fill="#9c3247"/>
</g>
<g transform="translate(923.187 478.702)">
<path d="m0 0c1.71464-14.2356-13.4288-22.0187-21.2844-27.5415 1.10061-15.4078-18.7813-18.3379-22.8139-26.3291-1.84446-10.9971-11.1194-16.252-4.47162-27.1794 0.802958-15.2261-19.8056-24.5002-30.615-13.6004-4.59567 6.25466-14.8357-9.57697-22.8745-0.130012-10.9427 4.8489-3.41591 19.4232-4.22922 23.63-14.0654 6.75487-11.6719 29.7267 3.36015 33.566 12.8794-2.30504 19.9246 10.2789 30.7486 13.2144-2.35541 15.3948 15.5248 21.3057 21.4775 28.8129 1.49287 10.4112-12.5378-8.81123-20.0975-4.44288-12.5324-0.275657-24.1265 9.99178-25.36 22.471-14.0906-8.50695-34.3941 0.659109-37.33 16.859-15.1898-5.09283-27.9364 11.494-31.7999 20.2114-10.0579-8.48366-24.6208 3.39026-31.1059 1.2599-4.49263-12.1605-24.4736-4.72645-25.0197-14.591-2.66645-18.2328-26.9788-27.0158-40.7445-15.4093-22.7209-8.43722-33.0531-39.4787-18.2266-59.1977 7.57286-13.8638 26.5502-12.8286 26.6432-30.5544 1.75077-10.5843 24.8187-21.0186 5.48545-24.6981-11.4113-3.39631-24.5692 2.51008-29.682 13.2391-17.9475-0.525577-6.31702 24.821-22.9577 21.9779-16.0566 2.52783-10.7788 21.6376-19.7718 28.241-13.5825 12.0266-8.3301 36.9184 9.00953 42.3811-7.44654 17.5485 10.0189 38.338 28.6 34-5.62265 17.4066 11.8681 36.2796 29.68 31.851-3.7475 16.5124 12.3536 33.1224 28.97 29.919 6.55122 16.8334 31.6042 20.7309 42.8 6.37 10.0891 14.2025 30.339 7.87876 40.2246 1.48916 13.6867 9.77262 35.063 1.5464 38.7254-14.8492 15.3783 0.93813 28.7937-14.4062 25.89-29.52 15.7923 11.0881 40.2105-2.13845 39.25-21.559-1.87444-9.65535 17.6922-3.6031 21.4053-14.3386 10.27-10.3673-0.040381-25.4305 12.9509-33.2329 2.07923-3.75195 3.17072-8.03477 3.16375-12.3195z" fill="#0e0f2c"/>
</g>
<g transform="translate(880 487.65)">
<path d="m0 0c-23.511-4.27008-45.0008-20.1127-54.88-42.03-6.32944 11.5537-7.535 25.4027-5.33183 38.2375 1.72067 8.99691 5.29729 18.3414 12.8109 24.0628 3.20792 2.53639 7.33614 3.24995 11.318 3.0297 5.06968-0.156805 10.3572 0.658857 15.1282-1.54107 9.486-4.09816 16.8408-12.3917 20.9547-21.7589z" fill="#faffff"/>
</g>
<g transform="translate(880 487.65)">
<path d="m0 0c-19.4214-3.5216-37.338-14.9053-48.67-31.08-3.20611 12.6405-2.66776 26.4158 2.34714 38.5197 2.79595 6.45496 7.29902 13.001 14.2962 15.2582 6.34623 1.90877 12.8531-1.17251 17.9211-4.84782 6.15996-4.5641 11.0584-10.8222 14.1055-17.85z" fill="#f5a15d"/>
</g>
<g transform="translate(880 487.65)">
<path d="m0 0c-7.75-1.391-15.56-4.11-23.03-8.23 1.77 9.16 6.81 17.179 12.8 22.839 0.1-0.089 0.2-0.189 0.3-0.29 0.14-0.139 0.29-0.279 0.43-0.42 0.22-0.219 0.44-0.439 0.65-0.66 0.23-0.239 0.45-0.469 0.68-0.719 0.22-0.241 0.44-0.48 0.66-0.73s0.44-0.5 0.65-0.761c0.22-0.25 0.43-0.509 0.64-0.769 0.22-0.271 0.42-0.531 0.63-0.8 0.62-0.801 1.22-1.63 1.79-2.49l0.57-0.87c0.55-0.871 1.08-1.77 1.58-2.691 0.33-0.619 0.65-1.239 0.96-1.88 0.24-0.5 0.47-1 0.68-1.509 0 0 0.01-0.01 0.01-0.02" fill="#faffff"/>
</g>
<g transform="translate(883.24 472.39)">
<path d="m0 0c0.00636524-11.2921-5.36509-22.1913-13.48-29.88-8.8173 8.34098-14.3742 20.5286-13.3539 32.7789 0.110703 1.38608 0.299996 2.76574 0.562921 4.1311 7.16826 3.95511 14.9685 6.78483 23.031 8.231 2.08485-4.79987 3.23587-10.0223 3.24-15.261z" fill="#c7d4e1"/>
</g>
<g transform="translate(869.76 442.51)">
<path d="m0 0c-5.75-5.43-12.35-8.689-17.78-8.689-9.19 0-17.11 9.339-20.65 22.75 5.59 8.019 13.12 15.239 22.33 20.919 1.09 0.67 2.2 1.32 3.31 1.93-0.439-2.28-0.68-4.63-0.68-7.03 0-12.04 5.991-22.8 13.47-29.88" fill="#d46453"/>
</g>
<g transform="translate(851.98 433.82)">
<path d="m 0,0 h -10.57 c -6.4,0 -12.18,4.52 -16.29,11.8 1.68,3.76 3.75,7.429 6.21,10.95 C -17.11,9.34 -9.19,0 0,0" fill="#c7d4e1"/>
</g>
<g transform="translate(863.147 316.143)">
<path d="m0 0c-14.64 4.46-34.7 2.45-46.34 0.64l4.09 10.47c-13.79 12.63-22.61 31.88-22.61 53.44 0 7.41 1.04 14.54 2.97 21.23 27.98-19.551 57.82-48.131 61.24-68.11 0.95-5.56 1.08-11.56 0.65-17.67" fill="#f5a15d"/>
</g>
<g transform="translate(863.147 316.143)">
<path d="m0 0c-0.1-1.38-0.22-2.76-0.38-4.15-3.06-27.79-16.51-56.43-16.51-56.43h-53.38l23.06 59.01 0.87 2.21c11.64 1.81 31.7 3.82 46.34-0.64" fill="#9c3247"/>
</g>
<g transform="translate(820.858 244.694)">
<path d="m0 0-25.369-5.306-12.182 23.881c-3.818 7.504-2.019 15.684 3.709 21.424 4.377 4.386 12.88 3.245 15.439-2.114z" fill="#9c3247"/>
</g>
<g transform="translate(830.042 262.641)">
<path d="m0 0c0-8.77-7.108-15.878-15.877-15.878s-15.878 7.108-15.878 15.878c0 8.769 7.109 15.877 15.878 15.877s15.877-7.108 15.877-15.877" fill="#d46453"/>
</g>
<g transform="translate(697.531 346.295)">
<path d="m0 0c0-14.34-11.625-25.964-25.964-25.964s-25.963 11.624-25.963 25.964c0 14.339 11.624 25.963 25.963 25.963s25.964-11.624 25.964-25.963" fill="#9c3247"/>
</g>
<g transform="translate(669.424 396.275)">
<path d="m0 0c-0.716-0.503-1.359-1.11-1.899-1.835-4.094-5.494-5.614-11.454-3.403-16.065 4.91-10.149 8.403-20.942 10.359-32.08 6.3 1.113 12.59 2.216 18.88 3.331 0.021 2.955-0.19 5.866-0.617 8.722-1.255 5.247-2.807 10.415-4.646 15.483-2.726 7.493-6.059 14.757-10.014 21.713-1.565 2.762-5.672 2.802-8.66 0.731" fill="#9c3247"/>
</g>
<g transform="translate(854.22 236.465)">
<path d="m0 0h-147.343v18.707h147.343c4.569 0 8.274-3.704 8.274-8.273v-2.16c0-4.57-3.705-8.274-8.274-8.274" fill="#5b537d"/>
</g>
<g transform="translate(592.315 353.684)">
<path d="m0 0h163.383c2.352 0 4.42-1.559 5.069-3.819l30.595-106.672c0.966-3.37-1.564-6.728-5.069-6.728h-163.383c-2.353 0-4.421 1.559-5.069 3.82l-30.595 106.671c-0.967 3.371 1.563 6.728 5.069 6.728" fill="#928fb8"/>
</g>
<g transform="translate(749.92 346.96)">
<path d="m0 0 0.76-2.65h-162.67l-0.76 2.65c-0.97 3.37 1.56 6.72 5.07 6.72h162.67c-3.5 0-6.03-3.35-5.07-6.72" fill="#c7d4e1"/>
</g>
<g transform="translate(786.29,236.46)">
<path d="m0 0h-0.7c-2.36 0-4.42 1.56-5.07 3.82l-29.84 104.03h11.68l29-101.12c0.97-3.37-1.56-6.73-5.07-6.73" fill="#5b537d"/>
</g>
<g transform="translate(658.31 295.074)">
<path d="m0 0c2.811-13.225 15.811-23.944 29.035-23.944s21.666 10.719 18.855 23.944-15.81 23.945-29.035 23.945c-13.224 0-21.666-10.72-18.855-23.945" fill="#5b537d"/>
</g>
<g transform="translate(680.648 292.802)">
<path d="m0 0 0.513-2.415c0.141-0.66 0.826-1.197 1.529-1.197s1.161 0.537 1.02 1.197l-0.513 2.415c-0.14 0.659-0.826 1.195-1.528 1.195-0.703 0-1.161-0.536-1.021-1.195" fill="#928fb8"/>
</g>
<g transform="translate(687.748 294.532)">
<path d="m0 0c-1.274 0-2.09-1.037-1.819-2.312 0.271-1.274 1.527-2.311 2.801-2.311 1.275 0 2.092 1.037 1.821 2.311-0.271 1.275-1.529 2.312-2.803 2.312" fill="#928fb8"/>
</g>
<g transform="translate(673.539 292.221)">
<path d="m0 0c0.271-1.274 1.528-2.312 2.803-2.312 1.274 0 2.091 1.038 1.82 2.312s-1.528 2.312-2.803 2.312c-1.274 0-2.091-1.038-1.82-2.312" fill="#928fb8"/>
</g>
<g transform="translate(686.433 306.1)">
<path d="m0 0c-2.29475-0.711131-4.59003-1.42056-6.885-2.131-3.40412 0.930231-6.80767 1.86255-10.212 2.792 3.00833 0.930667 6.01667 1.86133 9.025 2.792 3.404-0.930667 6.808-1.86133 10.212-2.792-0.713333-0.220333-1.42667-0.440667-2.14-0.661zm-0.072-4.74c-1.42679-1.0167-3.33562-0.94745-5.01833-1.09965-2.47044-0.00832-5.09242-0.049912-7.37735 1.00804-0.347399 0.528578-0.317045 1.29792-0.513175 1.92291-0.283473 0.71679-0.139299 0.980603 0.596957 0.61726 1.95724-0.503678 3.89066-1.12754 5.86289-1.55556 1.98279 0.491041 3.91943 1.19276 5.884 1.767 0.188333-0.886667 0.376667-1.77333 0.565-2.66zm-11.373-14.806c0.330669-0.919898 0.322647-2.3939 1.62867-2.41153 1.53146-0.107604 3.0628-0.216951 4.59433-0.323466 1.08534 0.125916 0.611915 1.36816 0.637608 2.10104 0.27718 0.245128 1.04665 0.02884 1.50734 0.10196 0.495453-0.06163 1.16145 0.119765 1.55734-0.08375 0.354834-0.834026 0.487542-2.19676 1.69353-2.10879 1.58676 0.151572 3.19785 0.158982 4.76876 0.404459 0.689017 0.55771 0.152047 1.50279 0.146451 2.24983 0.367281 0.202518 1.0835 0.131397 1.58514 0.228547 0.505666-0.09481 1.54256 0.528324 1.50683-0.299299 0.552416-1.87762-0.791317-3.68836-2.47764-4.39395-3.59754-1.58516-7.68912-1.57167-11.5266-1.10629-2.91228 0.462993-6.18647 1.28229-7.9824 3.8291-0.31439 0.590357-1.42765 2.47428-0.07314 2.04367 0.811252-0.07718 1.6225-0.154352 2.43376-0.231528zm21.078 12.287c-1.08349 1.27967-2.26717 2.51232-3.28852 3.82111-0.308676 1.41403-0.591958 2.85943-0.916479 4.25389-0.511746 1.09453-1.87103 1.01641-2.8619 1.39259-3.55403 0.97147-7.10807 1.94294-10.6621 2.91441-1.07756 0.0586504-2.0846-0.518088-3.1274-0.762807-2.87687-0.889398-5.75374-1.7788-8.6306-2.66819-1.37794-0.698433-0.07091-2.23504 1.0423-2.22649 1.2849-0.351502 2.5698-0.703005 3.8547-1.05451 0.262657-1.16194 0.461828-2.34031 0.768-3.491-0.845025-1.27971-1.95401 0.47486-3.106 0.396-1.55176-0.291416-1.98709-2.20701-2.67895-3.43035-0.69486-1.66526 1.34647-2.71439 2.08647-3.90376 0.44861-1.98444 0.795444-3.9979 1.30973-5.96364 0.25313-0.951885 0.256279-2.10005 0.746522-3.05733 1.5232-3.41727 5.32011-4.98058 8.77221-5.66056 4.33118-0.776228 8.951-0.82843 13.1304 0.699552 2.1632 0.760229 4.18541 2.70592 4.0239 5.15392 0.01625 1.22568-0.600862 2.30761-0.640566 3.47955-0.380673 1.81472-0.770451 3.62762-1.15472 5.44162 0.218603 0.578663 0.639419 1.10775 0.70525 1.725-0.520561 1.24985-2.19029 0.581697-2.30031-0.594062-0.416178-0.538473 0.063029-1.22159 0.077311-1.82974 0.309974-1.60583 0.602925-3.21619 0.922751-4.8192-1.3996-0.173851-2.82624-0.208893-4.20819-0.473391-0.665341-0.566637-0.13731-1.4991-0.132062-2.24353-0.501572-0.157244-1.25849-0.108609-1.85798-0.186899-0.508175 0.02312-1.27611-0.353078-1.29529 0.42174-0.216799 0.827624-0.690032 1.83628-1.7237 1.64508-1.5116-0.03594-3.03711 0.07381-4.53951-0.05839-0.726731-0.4513-0.286534-1.38996-0.330266-2.08961-1.025 0.07233-2.05 0.144667-3.075 0.217-0.328492 0.910561-0.317151 2.35599-1.60231 2.39588-1.30323 0.124042-2.60646 0.248083-3.90969 0.372124-0.489545 2.09562-0.977408 4.19163-1.468 6.287-1.04498 1.00946-2.51068 2.12375-1.15998 3.49595 0.519127 1.98238 2.13351 0.369027 3.2936-0.198334 0.705034 0.335694 1.34116 2.00322 2.37789 1.08586 3.36532-0.969407 6.97147-0.958622 10.4131-0.441863 1.29989 0.18699 2.3479 1.13516 3.47234 0.171393 0.686453 0.130949 0.976906 1.32362 0.23 1.627-0.779012 0.301716-0.585922 1.26029-0.832382 1.93972-0.13354 0.629093-0.267079 1.25819-0.400618 1.88728 1.14367 0.354 2.28733 0.708 3.431 1.062 0.182841-1.01845 0.503438-2.05663 0.602-3.063-0.558407-1.29708-1.20046-2.56413-1.7062-3.88011-0.0346893-1.17928 1.27749-1.18266 2.12687-1.12589 1.33722 0.020213 2.68013-0.040972 4.01369 0.031547 0.584916 0.158502 0.582159 0.937883 0.208641 1.30545z" fill="#928fb8"/>
</g>
<g transform="translate(845.308 241.834)">
<path d="m0 0h-10.158c-2.252 0-4.077 1.825-4.077 4.077s1.825 4.077 4.077 4.077h10.158c2.251 0 4.077-1.825 4.077-4.077s-1.826-4.077-4.077-4.077" fill="#392946"/>
</g>
<g transform="translate(819.244 241.834)">
<path d="m0 0h-10.158c-2.252 0-4.077 1.825-4.077 4.077s1.825 4.077 4.077 4.077h10.158c2.251 0 4.077-1.825 4.077-4.077s-1.826-4.077-4.077-4.077" fill="#392946"/>
</g>
<g transform="translate(702.121 463.264)">
<path d="m0 0c-4.308 0-7.801 3.493-7.801 7.801v11.633c0 4.308 3.493 7.8 7.801 7.8s7.801-3.492 7.801-7.8v-11.633c0-4.308-3.493-7.801-7.801-7.801" fill="#0e0f2c"/>
</g>
<g transform="translate(794.644 450.711)">
<path d="m0 0c7.747-15.54 1.429-34.417-14.11-42.163-15.54-7.747-34.417-1.429-42.163 14.11-7.747 15.539-1.43 34.417 14.11 42.163 15.539 7.747 34.416 1.429 42.163-14.11" fill="#9c3247"/>
</g>
<g transform="translate(746.329 426.624)">
<path d="m0 0c-1.965-0.979-2.578-3.483-1.305-5.271 2.96-4.161 6.988-7.259 11.514-9.1 6.783-2.764 14.673-2.709 21.741 0.814s11.861 9.791 13.736 16.871c1.263 4.755 1.204 9.874-0.368 14.774-0.658 2.05-3.034 2.991-4.96 2.031z" fill="#0e0f2c"/>
</g>
<g transform="translate(792.015 429.938)">
<path d="m0 0c-1.875-7.08-6.668-13.349-13.736-16.871-7.068-3.524-14.958-3.578-21.741-0.815 1.868 7.082 6.666 13.354 13.734 16.877 7.067 3.523 14.963 3.58 21.743 0.809" fill="#ff417d"/>
</g>
<g transform="translate(767.615 463.264)">
<path d="m0 0c-4.308 0-7.801 3.493-7.801 7.801v11.633c0 4.308 3.493 7.8 7.801 7.8s7.801-3.492 7.801-7.8v-11.633c0-4.308-3.493-7.801-7.801-7.801" fill="#0e0f2c"/>
</g>
<g transform="translate(855.067 545.852)">
<path d="m0 0h-11.711c-2.755 0-5.075 2.129-5.231 4.879-2.001 35.28-23.318 57.685-49.834 67.203-2.068 0.742-3.454 2.69-3.454 4.888 0 3.254 2.959 5.716 6.158 5.114 35.624-6.701 66.882-32.22 69.266-76.589 0.16-2.981-2.209-5.495-5.194-5.495" fill="#faffff"/>
</g>
<g transform="translate(753.231 503.958)">
<path d="m0 0c7.12469 5.06388 16.7396 6.42775 24.9564 3.39208 3.30268-1.22618 6.49527-2.95493 9.04583-5.40721 1.31268-1.54678 0.242433-4.20616-1.76591-4.42643-1.42505-0.177776-2.64624 0.784312-3.96513 1.16019-5.24416 2.08064-10.966 3.20986-16.605 2.46894-3.25731-0.353385-6.4143-1.26824-9.55369-2.16521-1.91351-0.4479-3.77262 1.57475-3.18184 3.44121 0.165672 0.614893 0.549383 1.16823 1.06929 1.53643z" fill="#0e0f2c"/>
</g>
<g transform="translate(787.483 498.951)">
<path d="m0 0 2.173 4.018c0.907 1.677-0.624 3.63-2.47 3.15l-5.787-1.507z" fill="#0e0f2c"/>
</g>
<g transform="translate(715.697 502.383)">
<path d="m0 0c-7.21792 4.19422-16.4804 4.65228-24.0302 1.04837-3.03418-1.4544-5.91996-3.37736-8.13154-5.93249-1.11325-1.58554 0.137959-4.01898 2.06568-4.05461 1.37069-0.044797 2.44891 0.975388 3.66992 1.44876 4.86739 2.47176 10.2913 4.04421 15.7887 3.791 3.05678-0.070832 6.06726-0.655784 9.06227-1.21939 1.85855-0.258816 3.45113 1.82655 2.72594 3.5501-0.211242 0.570318-0.624221 1.06325-1.15071 1.36826z" fill="#0e0f2c"/>
</g>
<g transform="translate(683.559 494.632)">
<path d="m0 0-2.417 3.631c-1.009 1.517 0.276 3.508 2.074 3.212l5.636-0.928z" fill="#0e0f2c"/>
</g>
<g transform="translate(717.425 450.525)">
<path d="m0 0c2.3766-3.66207 6.80884-6.05686 11.2112-5.49603 3.62537 0.437944 6.96337 2.66796 8.86074 5.77007 0.543208 1.11844 0.253235 2.78109-0.965217 3.31958-0.833857 0.23442-1.68688-0.150305-2.52102-0.241414-2.93474-0.614769-5.9516-1.05069-8.95016-0.685978-2.12417 0.198838-4.19404 0.753952-6.3077 1.01883-1.25535-0.036766-1.87743-1.47224-1.71889-2.57179 0.0467792-0.393416 0.174707-0.780036 0.391016-1.11327z" fill="#691749"/>
</g>
<g transform="translate(826.77 589.07)">
<path d="m0 0c-1.8 0.41-3.67 0.62-5.59 0.62-0.22 0-0.44-0.02-0.65-0.02-2.88 10.95-12.85 19.04-24.71 19.04-5.92 0-11.36-2.02-15.69-5.39-4.68 5.29-11.52 8.64-19.15 8.64-7.76 0-14.71-3.47-19.4-8.93-4.68 5.46-11.63 8.93-19.4 8.93-10.46 0-19.45-6.29-23.4-15.3-1.26 0.19-2.54 0.29-3.85 0.29-14.11 0-25.55-11.44-25.55-25.55 0-1.59 0.16-3.15 0.43-4.66-1.63 0.33-3.32 0.5-5.05 0.5-14.11 0-25.55-11.44-25.55-25.55 0-2.36 0.33-4.64 0.92-6.8-1.5 0.27-3.05 0.42-4.64 0.42-14.11 0-25.55-11.43-25.55-25.54 0-3.13 0.56-6.11 1.59-8.88-9.81-3.57-16.81-12.97-16.81-24.01 0-2.78 0.44-5.46 1.27-7.96l0.432 0.727c2.256 3.798 3.815 7.943 4.947 12.213 1.614 6.086 6.123 11.173 12.211 13.39l5.68 2.07-2.11 5.661c-0.8 2.17-1.21 4.449-1.21 6.789 0 10.78 8.77 19.54 19.55 19.54 1.17 0 2.38-0.11 3.57-0.32l9.36-1.69-2.5 9.17c-0.47 1.721-0.71 3.48-0.71 5.22 0 10.78 8.77 19.55 19.55 19.55 1.31 0 2.61-0.13 3.86-0.38l8.65-1.75-1.56 8.69c-0.22 1.25-0.33 2.46-0.33 3.6 0 10.78 8.77 19.55 19.55 19.55 0.98 0 1.97-0.07 2.95-0.22l4.55-0.69 1.84 4.21c3.467 7.913 11.764 12.701 20.525 11.537 4.878-0.649 9.293-3.235 12.495-6.972l4.28-4.995 4.56 5.3c3.73 4.35 9.14 6.84 14.85 6.84 5.59 0 10.93-2.41 14.65-6.61l3.74-4.22 4.44 3.46c3.47 2.7 7.62 4.12 12.01 4.12 8.87 0 16.65-5.99 18.9-14.56l1.18-4.48h4.63c0.19 0 0.39 0.01 0.59 0.02h0.06c2.54 0 6.747-0.49 8.977-1.38-0.47 2.28-2.787 4.53-3.387 6.76" fill="#691749"/>
</g>
</g>
</g>
</g>
</svg>